<svg width="48" height="48" viewBox="0 0 48 48" fill="none" xmlns="http://www.w3.org/2000/svg">
<path d="M32.462 6.69823C31.4751 5.94177 30.2713 5.52248 29.028 5.50223C26.964 5.45423 25.014 6.40823 23.652 7.37623C21.004 5.75823 18.642 5.69223 16.74 6.78223C15.058 7.74623 14.05 9.45223 13.516 10.8782C10.876 11.1382 9.132 12.3442 8.228 14.1222C7.388 15.7702 7.404 17.6662 7.664 19.1702L7.544 19.2962L7.322 19.4602C6.462 20.0002 6.062 21.0002 5.86 21.7202C5.62726 22.59 5.50628 23.4859 5.5 24.3862C5.488 25.2962 5.574 26.2462 5.786 27.0802C5.978 27.8262 6.36 28.8302 7.2 29.4042L17.68 36.5502L17.792 36.6562C17.856 36.7362 17.896 36.8402 17.904 36.9482L17.888 37.1142C17.706 37.8642 17.572 38.8842 17.86 39.8482C18.0189 40.399 18.3228 40.8971 18.74 41.2902C19.198 41.7182 19.768 41.9902 20.404 42.1202L21.3 42.2882C23.316 42.6202 24.874 42.5622 27.034 42.1202L27.274 42.0622C27.8207 41.9239 28.3232 41.6486 28.734 41.2622C29.194 40.8222 29.458 40.2942 29.6 39.7782C29.8 39.0442 29.764 38.2802 29.656 37.6342L29.532 37.0342C29.5088 36.9382 29.5123 36.8376 29.5423 36.7434C29.5723 36.6493 29.6275 36.5652 29.702 36.5002L40.652 29.4262L40.704 29.3922L40.75 29.3562C41.588 28.7122 42.016 27.7002 42.236 26.8162C42.47 25.8862 42.54 24.8362 42.478 23.8342C42.4258 22.83 42.2194 21.8397 41.866 20.8982C41.53 20.0582 40.966 19.1182 40.026 18.6062C40.454 17.4742 40.566 16.3862 40.38 15.3662C40.1865 14.361 39.7249 13.4267 39.044 12.6622C37.894 11.3382 36.266 10.5102 34.938 10.0622C34.2953 8.58223 33.47 7.46089 32.462 6.69823ZM22.5 26.0002V16.0002C22.5 15.6024 22.658 15.2209 22.9393 14.9396C23.2206 14.6583 23.6022 14.5002 24 14.5002C24.3978 14.5002 24.7794 14.6583 25.0607 14.9396C25.342 15.2209 25.5 15.6024 25.5 16.0002V26.0002C25.5 26.3981 25.342 26.7796 25.0607 27.0609C24.7794 27.3422 24.3978 27.5002 24 27.5002C23.6022 27.5002 23.2206 27.3422 22.9393 27.0609C22.658 26.7796 22.5 26.3981 22.5 26.0002ZM15.354 18.5882C16.154 18.3742 16.974 18.8482 17.19 19.6482L18.744 25.4442L18.776 25.5942C18.8375 25.9619 18.7599 26.3394 18.5582 26.653C18.3566 26.9665 18.0454 27.1938 17.6854 27.2904C17.3253 27.3871 16.9421 27.3462 16.6106 27.1757C16.279 27.0052 16.0229 26.7173 15.892 26.3682L15.846 26.2202L14.292 20.4262C14.2409 20.2359 14.2277 20.0374 14.2533 19.8421C14.2789 19.6467 14.3428 19.4583 14.4412 19.2876C14.5397 19.1169 14.6708 18.9673 14.827 18.8473C14.9833 18.7273 15.1637 18.6393 15.354 18.5882ZM30.316 27.2762C29.9321 27.1731 29.6048 26.9218 29.4061 26.5776C29.2073 26.2333 29.1533 25.8243 29.256 25.4402L30.808 19.6422C30.9112 19.2577 31.1629 18.9298 31.5078 18.7309C31.8526 18.5319 32.2624 18.4781 32.647 18.5812C33.0316 18.6844 33.3594 18.9361 33.5584 19.281C33.7573 19.6259 33.8112 20.0357 33.708 20.4202L32.152 26.2142C32.0489 26.5981 31.7976 26.9254 31.4533 27.1241C31.1091 27.3229 30.7 27.3789 30.316 27.2762Z" fill="white" fill-opacity="0.8"/>
</svg>
