<svg width="48" height="48" viewBox="0 0 48 48" fill="none" xmlns="http://www.w3.org/2000/svg">
<path d="M26.6719 26.991C26.103 26.991 25.5279 27.0047 24.9466 27.0323C24.3653 28.723 24.3226 30.695 24.9466 33.8283C25.3839 36.023 28.4919 42.227 31.0586 44.4056C31.9693 45.179 33.2426 45.5843 34.6453 45.5843C37.5039 45.5843 40.8999 43.8976 42.8546 40.2056C46.8559 32.6443 38.2226 26.991 26.6719 26.991Z" fill="#662113"/>
<path d="M44.888 2.63086C44.616 2.63086 44.3213 2.66019 44.004 2.71886C39.7613 3.52019 31.6013 9.55353 24.9546 18.4135C24.9546 18.4135 23.9026 25.2935 23.9026 26.6722C23.9026 27.1202 25.588 27.3389 27.98 27.3389C32.936 27.3389 40.9253 26.3989 43.212 24.6175C45.7426 22.6455 48.0786 11.5455 47.8626 5.84553C47.8013 4.27886 46.98 2.63086 44.888 2.63086Z" fill="#662113"/>
<path d="M36.1307 18.5815L44.9693 18.0001C44.9693 18.0001 43.5627 22.8255 40.8333 24.2081C38.104 25.5908 30.5413 26.2081 30.5413 26.2081C30.5413 26.2081 33.648 20.5268 34.9227 19.1548C35.2387 18.8135 35.668 18.6108 36.1307 18.5815ZM36.824 15.9788L46.8587 5.11079C46.8587 5.11079 46.8613 12.2641 45.2507 16.6241C45.2507 16.6241 38.0733 17.1295 37.3653 17.1455C36.428 17.1668 36.0733 16.7921 36.824 15.9788ZM28.7333 26.2081L36.0667 14.8121C36.1898 14.6675 36.2751 14.4946 36.3149 14.3089C36.3547 14.1232 36.3478 13.9305 36.2947 13.7481L35.004 9.43745L26.0413 18.2495L24.916 26.2908L28.7333 26.2081ZM37.1493 11.8401C37.3787 12.3815 37.8373 12.5068 38.4 12.0068C38.9627 11.5068 46.4987 3.88145 46.4 3.71612C46.4 3.71612 42.624 2.12412 36 8.33345C36 8.33345 36.92 11.2988 37.1493 11.8401ZM25.2493 27.9721L32.4133 34.9428C32.5446 35.0579 32.6326 35.2143 32.6629 35.3861C32.6932 35.558 32.664 35.7351 32.58 35.8881L29.4133 41.6668C29.4133 41.6668 23.8307 34.3615 25.2493 27.9721ZM34.9587 36.3735L42.3573 37.3615C42.3573 37.3615 40.9467 42.4881 37.832 43.8335C32.624 46.0841 30.7493 43.0001 30.7493 43.0001L33.8853 36.9175C33.9826 36.724 34.1394 36.5668 34.3325 36.4689C34.5257 36.371 34.7451 36.3375 34.9587 36.3735ZM27.0253 27.8055L34.192 34.4161C34.296 34.505 34.4156 34.5623 34.5507 34.5881L42.7093 35.7921C42.7093 35.7921 41.084 31.7508 36.804 29.7508C31.8573 27.4401 27.0253 27.8055 27.0253 27.8055Z" fill="#D99E82"/>
<path d="M26.6719 26.991C26.103 26.991 25.5279 27.0047 24.9466 27.0323C24.3653 28.723 24.3226 30.695 24.9466 33.8283C25.3839 36.023 28.4919 42.227 31.0586 44.4056C31.9693 45.179 33.2426 45.5843 34.6453 45.5843C37.5039 45.5843 40.8999 43.8976 42.8546 40.2056C46.8559 32.6443 38.2226 26.991 26.6719 26.991ZM40.7213 39.4256C38.9666 42.7403 36.6546 44.0563 34.6439 44.0563C33.6213 44.0563 32.3719 43.639 31.7773 43.135C29.5173 41.2163 27.1946 37.0283 26.1106 33.503C25.4906 31.4856 25.6386 28.1403 25.6386 28.1403L26.5279 28.1123C33.4186 28.1123 38.8599 30.8563 40.8293 34.1283C41.7813 35.7096 41.7453 37.4923 40.7213 39.4256Z" fill="#662113"/>
<path d="M44.888 4.29753C45.196 4.29753 46.1346 4.29753 46.196 5.90819C46.332 9.48286 45.404 13.9895 44.3333 17.7509C43.612 20.2855 42.2186 22.1402 41.5413 22.6669C40.7946 23.2482 39.0573 24.3175 36.5826 24.7509C33.876 25.2242 30.9733 25.8615 27.9746 25.8615C26.872 25.8615 26.064 25.8869 25.5826 25.8335C25.7573 24.2095 26.2346 21.0989 26.5386 19.0815C31.5626 12.4949 39.4866 5.26686 44.3133 4.35619C44.5204 4.31708 44.712 4.29753 44.888 4.29753ZM44.888 2.63086C44.616 2.63086 44.3213 2.66019 44.004 2.71886C39.7613 3.52019 31.6013 9.55353 24.9546 18.4135C24.9546 18.4135 23.9026 25.2935 23.9026 26.6722C23.9026 27.1202 25.588 27.3389 27.98 27.3389C32.936 27.3389 40.9253 26.3989 43.212 24.6175C45.7426 22.6455 48.0786 11.5455 47.8626 5.84553C47.8013 4.27886 46.98 2.63086 44.888 2.63086Z" fill="#662113"/>
<path d="M5.20265 40.2056C7.15732 43.8976 10.552 45.5843 13.412 45.5843C14.8147 45.5843 16.088 45.179 16.9987 44.4056C19.5653 42.2283 22.6733 36.0243 23.1107 33.8283C23.7346 30.695 23.692 28.7243 23.1107 27.0323C22.536 27.0047 21.9607 26.991 21.3853 26.991C9.83198 26.991 1.19998 32.6443 5.20265 40.2056Z" fill="#662113"/>
<path d="M3.16808 2.63086C1.07608 2.63086 0.25341 4.27886 0.194743 5.84419C-0.0212571 11.5442 2.31474 22.6455 4.84541 24.6162C7.13208 26.3975 15.1201 27.3375 20.0774 27.3375C22.4694 27.3375 24.1547 27.1189 24.1547 26.6709C24.1547 25.2935 23.1027 18.4122 23.1027 18.4122C16.4547 9.55353 8.29341 3.52019 4.05208 2.71886C3.76076 2.66226 3.46483 2.6328 3.16808 2.63086Z" fill="#662113"/>
<path d="M11.9239 18.5815L3.0866 18.0001C3.0866 18.0001 4.49327 22.8255 7.2226 24.2081C9.95193 25.5908 17.5146 26.2081 17.5146 26.2081C17.5146 26.2081 14.4079 20.5268 13.1333 19.1548C12.8188 18.8153 12.3857 18.61 11.9239 18.5815ZM11.2319 15.9788L1.19727 5.11079C1.19727 5.11079 1.1946 12.2641 2.80527 16.6241C2.80527 16.6241 9.9826 17.1295 10.6906 17.1455C11.6279 17.1668 11.9826 16.7921 11.2319 15.9788ZM19.3226 26.2081L11.9893 14.8121C11.8661 14.6675 11.7808 14.4946 11.741 14.3089C11.7012 14.1232 11.7082 13.9305 11.7613 13.7481L13.0519 9.43745L22.0146 18.2495L23.1399 26.2908L19.3226 26.2081ZM10.9053 11.8401C10.6759 12.3815 10.2173 12.5068 9.6546 12.0068C9.09193 11.5068 1.55593 3.88145 1.6546 3.71612C1.6546 3.71612 5.4306 2.12412 12.0546 8.33345C12.0559 8.33345 11.1346 11.2988 10.9053 11.8401ZM22.8066 27.9721L15.6426 34.9428C15.5114 35.0579 15.4233 35.2143 15.393 35.3861C15.3627 35.558 15.392 35.7351 15.4759 35.8881L18.6426 41.6655C18.6413 41.6668 24.2253 34.3615 22.8066 27.9721ZM13.0959 36.3735L5.69727 37.3615C5.69727 37.3615 7.10793 42.4881 10.2226 43.8335C15.4306 46.0841 17.3053 43.0001 17.3053 43.0001L14.1693 36.9175C14.072 36.724 13.9152 36.5668 13.7221 36.4689C13.5289 36.371 13.3095 36.3375 13.0959 36.3735ZM21.0306 27.8055L13.8639 34.4161C13.7608 34.5027 13.6374 34.5619 13.5053 34.5881L5.3466 35.7921C5.3466 35.7921 6.97193 31.7508 11.2519 29.7508C16.1973 27.4401 21.0306 27.8055 21.0306 27.8055Z" fill="#D99E82"/>
<path d="M5.20265 40.2056C7.15732 43.8976 10.552 45.5843 13.412 45.5843C14.8147 45.5843 16.088 45.179 16.9987 44.4056C19.5653 42.2283 22.6733 36.0243 23.1107 33.8283C23.7346 30.695 23.692 28.7243 23.1107 27.0323C22.536 27.0047 21.9607 26.991 21.3853 26.991C9.83198 26.991 1.19998 32.6443 5.20265 40.2056ZM7.22665 34.127C9.19598 30.855 14.6373 28.111 21.528 28.111L22.4173 28.139C22.4173 28.139 22.5653 31.4856 21.9453 33.5016C20.8613 37.027 18.5387 41.215 16.2787 43.1336C15.684 43.639 14.4347 44.055 13.412 44.055C11.4013 44.055 9.08932 42.7403 7.33465 39.4243C6.31065 37.4923 6.27465 35.7096 7.22665 34.127Z" fill="#662113"/>
<path d="M3.16808 4.29753C3.34408 4.29753 3.53563 4.31708 3.74274 4.35619C8.56808 5.26686 16.4934 12.4949 21.5174 19.0815C21.8214 21.0989 22.2987 24.2095 22.4734 25.8335C21.9921 25.8869 21.1841 25.8615 20.0814 25.8615C17.0827 25.8615 14.1801 25.2242 11.4734 24.7509C8.99874 24.3175 7.26141 23.2482 6.51474 22.6669C5.83741 22.1389 4.44408 20.2855 3.72274 17.7509C2.65208 13.9895 1.72408 9.48286 1.86008 5.90819C1.92141 4.29753 2.85874 4.29753 3.16808 4.29753ZM3.16808 2.63086C1.07608 2.63086 0.25341 4.27886 0.194743 5.84419C-0.0212571 11.5442 2.31474 22.6455 4.84541 24.6162C7.13208 26.3975 15.1201 27.3375 20.0774 27.3375C22.4694 27.3375 24.1547 27.1189 24.1547 26.6709C24.1547 25.2935 23.1027 18.4122 23.1027 18.4122C16.4547 9.55353 8.29341 3.52019 4.05208 2.71886C3.76076 2.66226 3.46483 2.6328 3.16808 2.63086Z" fill="#662113"/>
<path d="M29.1827 6.34965C29.1036 6.30587 29.0166 6.27814 28.9268 6.26804C28.837 6.25795 28.746 6.26571 28.6592 6.29085C28.5723 6.316 28.4913 6.35805 28.4207 6.41459C28.3502 6.47113 28.2915 6.54104 28.248 6.62032L24.5947 13.2603C24.5707 13.3043 24.5654 13.351 24.552 13.3963C24.3827 13.387 24.2267 13.3723 24.028 13.3723C23.8307 13.3723 23.6734 13.3857 23.5054 13.3963C23.492 13.351 23.4867 13.3043 23.4627 13.2603L19.8094 6.62032C19.7213 6.46031 19.5733 6.34182 19.3979 6.29094C19.2225 6.24006 19.0341 6.26094 18.874 6.34899C18.714 6.43704 18.5955 6.58505 18.5447 6.76046C18.4938 6.93587 18.5147 7.12431 18.6027 7.28432L22.1427 13.719C20.5707 14.7643 23.676 18.303 22.6507 25.991C21.2734 36.3243 24.028 39.0803 24.028 39.0803C24.028 39.0803 26.784 36.3243 25.4054 25.991C24.38 18.303 27.4854 14.7643 25.9134 13.719L29.4547 7.28432C29.4983 7.2051 29.5258 7.11807 29.5357 7.02821C29.5456 6.93835 29.5377 6.84742 29.5124 6.76062C29.4872 6.67381 29.445 6.59284 29.3885 6.52232C29.3319 6.45181 29.262 6.39313 29.1827 6.34965Z" fill="#662113"/>
</svg>
