<svg width="48" height="48" viewBox="0 0 48 48" fill="none" xmlns="http://www.w3.org/2000/svg">
<g clip-path="url(#clip0_8_957)">
<path d="M47.8666 16.293C47.6933 16.1197 47.3733 16.1197 47.1866 16.293C46.8666 16.5997 32.4533 30.693 31.2933 31.653C31.04 31.8664 30.6933 31.8664 30.48 31.653C30.2666 31.4397 30.2666 31.093 30.48 30.8397C31.44 29.693 45.5333 15.2797 45.84 14.9464C46.0133 14.7597 46.0133 14.4397 45.84 14.2664C45.6666 14.093 45.3466 14.093 45.16 14.2664C44.84 14.573 29.84 29.253 28.6933 30.1997C28.44 30.413 28.0933 30.413 27.88 30.1997C27.6666 29.9864 27.6666 29.6397 27.88 29.3864C28.84 28.2397 43.5066 13.2397 43.8133 12.9197C43.9866 12.733 43.9866 12.413 43.8133 12.2397C43.64 12.0664 43.32 12.0664 43.1333 12.2397C42.8133 12.5464 27.44 27.5997 26.28 28.5597C26.0266 28.773 25.68 28.773 25.4666 28.5597C25.2533 28.3464 25.2533 27.9997 25.4666 27.7464C26.4266 26.5997 41.48 11.2264 41.7866 10.893C41.96 10.7064 41.96 10.3864 41.7866 10.213C41.6133 10.0397 41.2933 10.0397 41.1066 10.213C40.7866 10.5197 25.2133 25.773 24.0666 26.7197C23.8133 26.933 23.4666 26.933 23.2533 26.7197C23.04 26.5064 23.04 26.1597 23.2533 25.9064C24.2133 24.7597 39.4533 9.18637 39.76 8.86637C39.9333 8.67971 39.9333 8.35971 39.76 8.18637C39.5866 8.01304 39.2666 8.01304 39.08 8.18637C38.76 8.49304 23.1866 23.7464 22.04 24.693C21.7866 24.9064 21.44 24.9064 21.2266 24.693C21.0133 24.4797 21.0133 24.133 21.2266 23.8797C22.1866 22.733 37.4266 7.15971 37.7333 6.83971C37.9066 6.65304 37.9066 6.33304 37.7333 6.15971C37.56 5.98637 37.24 5.98637 37.0533 6.15971C36.7333 6.46637 21.36 21.5197 20.2 22.4797C19.9466 22.693 19.6 22.693 19.3866 22.4797C19.1733 22.2664 19.1733 21.9197 19.3866 21.6664C20.3466 20.5197 35.4 5.14637 35.7066 4.81304C35.88 4.62637 35.88 4.30637 35.7066 4.13304C35.5333 3.95971 35.2133 3.95971 35.0266 4.13304C34.7066 4.43971 19.7066 19.1197 18.56 20.0664C18.3066 20.2797 17.96 20.2797 17.7466 20.0664C17.5333 19.853 17.5333 19.5064 17.7466 19.253C18.7066 18.1064 33.3733 3.10637 33.68 2.78637C33.8533 2.59971 33.8533 2.27971 33.68 2.10637C33.5066 1.93304 33.1866 1.93304 33 2.10637C32.68 2.41304 18.2666 16.5064 17.1066 17.4664C16.8533 17.6797 16.5066 17.6797 16.2933 17.4664C16.08 17.253 16.08 16.9064 16.2933 16.653C17.2533 15.5064 31.3466 1.09304 31.6533 0.759707C31.8266 0.57304 31.8266 0.25304 31.6533 0.079707C31.48 -0.0936263 31.16 -0.0936263 30.9733 0.079707C30.6533 0.386374 15.8933 14.7197 14.7733 15.7197C8.61329 21.2797 11.4 23.9464 11.7066 27.1597C12.2 32.453 8.45329 35.4397 5.86662 35.7064C2.50662 36.053 -0.0667114 38.453 -0.0667114 41.8264C-0.0667114 43.5197 0.613288 45.053 1.73329 46.1597C2.83995 47.2664 4.37329 47.9597 6.06662 47.9597C9.45329 47.9597 11.84 45.3864 12.1866 42.0264C12.4533 39.4397 15.44 35.693 20.7333 36.1864C23.9466 36.4797 26.6133 39.2797 32.1733 33.1197C33.1733 32.013 47.5066 17.253 47.8133 16.9197C47.9866 16.733 47.9866 16.413 47.8133 16.2397L47.8666 16.293ZM6.07996 43.5864C5.61329 43.5864 5.19995 43.3997 4.90662 43.093C4.75095 42.9398 4.6272 42.7571 4.54252 42.5557C4.45784 42.3544 4.41392 42.1382 4.41329 41.9197C4.41329 40.9997 5.15996 40.253 6.07996 40.253C6.54662 40.253 6.95996 40.4397 7.25329 40.7464C7.54662 41.053 7.74662 41.4664 7.74662 41.9197C7.74662 42.8397 6.99996 43.5864 6.07996 43.5864Z" fill="#662113"/>
<path d="M5.17328 37.4936C3.22661 37.8936 1.73328 39.5603 1.61328 41.6003M13.9866 18.8003C11.8399 21.6403 12.2533 22.6803 13.1199 25.7736C13.8533 28.4003 13.1999 30.8536 12.2533 32.747" stroke="#D99E82" stroke-width="1.33333" stroke-miterlimit="10" stroke-linecap="round"/>
</g>
<defs>
<clipPath id="clip0_8_957">
<rect width="48" height="48" fill="white"/>
</clipPath>
</defs>
</svg>
