<svg width="48" height="48" viewBox="0 0 48 48" fill="none" xmlns="http://www.w3.org/2000/svg">
<path d="M5.39731 39.5253C4.31597 38.7813 3.34264 34.0947 4.14931 33.6533C5.13331 33.1173 5.06397 34.7667 7.15597 36.8027C9.24797 38.8387 15.7826 38.02 17.4333 38.5707C19.2506 39.1773 8.91997 41.948 5.39731 39.5253Z" fill="#C1694F"/>
<path d="M7.15607 36.804C5.3334 29.3334 6.20674 25.2254 7.24407 22.4814C9.06674 17.6534 22.2654 6.89204 31.7334 3.51604C34.2374 2.62271 42.1601 1.33337 46.6667 1.33337C47.4521 4.44271 45.1014 10.2894 44.5067 11.3574C43.1614 13.7707 39.7547 17.0547 32.9787 24C32.6427 24.344 26.1534 23.3867 25.8107 23.7454C25.4334 24.14 31.2027 25.8507 30.8174 26.264C29.8325 27.3165 28.8245 28.4307 27.7934 29.6067C27.5641 29.868 16.7121 28.376 16.4814 28.644C16.1721 29.004 26.4827 31.1267 26.1694 31.4974C25.309 32.5178 24.4383 33.5831 23.5574 34.6934C21.2574 37.5974 7.15607 36.804 7.15607 36.804Z" fill="#D99E82"/>
<path d="M25.5333 17.0493C27.6506 18.3373 32.6413 19.6399 36.6213 20.2786C39.152 17.6959 41.02 15.7746 42.3573 14.2399C39.3453 13.5866 34.7013 12.5066 32.3746 11.4573L31.2866 10.9199L24.7906 16.4799L25.5333 17.0493Z" fill="#C1694F"/>
<path d="M46.784 2.01871C46.7598 1.78795 46.7206 1.55902 46.6666 1.33337C46.1626 1.33337 45.6106 1.35204 45.0333 1.38137C40.4493 1.61871 33.9573 2.72271 31.7333 3.51604C31.2733 3.68004 30.7973 3.87604 30.3213 4.07337C29.684 4.33737 29.0355 4.62804 28.376 4.94537C28.8506 6.92004 29.8773 9.13737 30.7853 10.296C28.5563 12.0292 26.4049 13.8599 24.3373 15.7827C16.7973 22.78 10.976 30.2787 6.99731 36.1054C7.05065 36.3374 7.09865 36.564 7.15731 36.804C7.15731 36.804 7.44931 36.82 7.94265 36.8387C9.91865 33.788 15.5466 25.8534 25.5346 17.0507C27.7467 15.1047 30.0282 13.2391 32.3746 11.4574C34.7013 12.5067 39.3453 13.5867 42.3573 14.24C42.7875 13.7476 43.1649 13.2907 43.4893 12.8694C43.9106 12.32 44.248 11.8227 44.5066 11.3574C45.06 10.3627 47.132 5.23204 46.784 2.01871Z" fill="#662113"/>
<path d="M46.6667 1.3333C46.1733 1.3333 45.6675 1.32974 45.1493 1.32263C39.9293 3.8213 35.1373 6.91463 30.7867 10.296C29.88 9.13597 28.852 6.91997 28.3773 4.9453C26.3186 5.95321 24.3221 7.08369 22.3987 8.33063C22.8107 10.8786 23.5347 14.1666 24.3387 15.7826C9.10266 29.9213 0.850658 46.14 0.737325 46.368C0.658113 46.5262 0.645009 46.7094 0.700895 46.8773C0.756781 47.0453 0.877079 47.1841 1.03532 47.2633C1.19357 47.3425 1.3768 47.3556 1.54471 47.2997C1.71262 47.2438 1.85145 47.1235 1.93066 46.9653C2.08932 46.648 18.1227 15.1213 46.8093 2.0053C46.769 1.77982 46.7214 1.55571 46.6667 1.3333Z" fill="#C1694F"/>
</svg>
